<svg xmlns="http://www.w3.org/2000/svg" width="1176" height="1242" viewBox="0 0 1176 1242" version="1.1">
	<path d="M 672.232 87.146 C 663.641 88.377, 650.184 93.039, 643.450 97.116 C 640.376 98.977, 631.031 105.631, 622.685 111.903 C 595.080 132.644, 577.677 138.721, 539.162 141.065 C 505.560 143.110, 468.833 138.718, 429.602 127.961 C 421.710 125.797, 402.226 119.569, 386.304 114.121 C 345.053 100.006, 341.489 99.507, 337.928 107.350 C 332.560 119.174, 337.769 138.121, 357.586 178.856 C 383.713 232.559, 395.467 249.140, 423.931 272.442 C 430.844 278.101, 439.481 285.840, 443.124 289.638 C 454.493 301.492, 464.374 318.332, 473.259 341 C 480.150 358.582, 480.159 357, 473.173 357 C 465.853 357, 455.726 360.080, 450.877 363.780 C 441.848 370.671, 438.054 378.141, 438.022 389.090 C 438.003 395.590, 438.442 397.565, 441.076 402.835 C 446.506 413.702, 456.730 419.998, 470.250 420.798 C 474.512 421.050, 477.994 421.537, 477.987 421.878 C 477.961 423.172, 454.360 451.829, 423.942 487.500 C 388.917 528.574, 366.154 555.979, 345.866 581.500 C 253.300 697.939, 194.993 797.773, 172.113 879 C 163.951 907.977, 161.020 926.373, 160.324 953 C 159.532 983.314, 162.520 1002.598, 171.843 1027.330 C 190.284 1076.250, 228.134 1107.400, 286.260 1121.492 C 314.882 1128.432, 341.613 1130.991, 385.500 1130.994 C 417.608 1130.996, 432.858 1130.298, 494.500 1126.008 C 517.600 1124.400, 546.400 1122.559, 558.500 1121.915 C 588.451 1120.323, 642.840 1121.258, 672.500 1123.876 C 685.150 1124.993, 710.800 1127.271, 729.500 1128.939 C 841.610 1138.937, 898.286 1139.336, 950.599 1130.494 C 1034.792 1116.265, 1082.573 1076.451, 1096.087 1009.265 C 1098.834 995.612, 1099.789 966.911, 1098.038 950.694 C 1093.354 907.332, 1078.541 862.027, 1050.564 805.500 C 1005.397 714.239, 932.954 612.341, 821.723 483.611 C 810.845 471.022, 802.108 460.559, 802.307 460.360 C 802.506 460.161, 820.140 462.698, 841.493 465.999 C 862.847 469.300, 880.359 472.001, 880.409 472.001 C 880.459 472.002, 880.518 475.265, 880.539 479.251 C 880.601 490.770, 886.214 499.011, 897.907 504.753 C 903.037 507.272, 904.453 507.498, 915 507.474 C 928.379 507.443, 932.871 505.926, 940.554 498.843 C 949.362 490.725, 950.829 484.240, 948.099 465.500 C 944.148 438.375, 932.954 416.687, 913.128 397.744 C 908.698 393.513, 902.808 388.422, 900.037 386.431 C 897.267 384.441, 895 382.593, 895 382.324 C 895 381.039, 921.667 352.860, 925.464 350.133 C 930.517 346.505, 935.562 339.333, 937.124 333.559 C 937.728 331.327, 938.017 326.285, 937.768 322.356 C 937.217 313.689, 934.437 308.376, 926.911 301.610 C 910.435 286.796, 881.501 291.930, 871.269 311.483 C 870.410 313.123, 867.274 317.187, 864.298 320.514 L 858.889 326.561 851.195 322.761 C 830.326 312.454, 807.663 314.374, 789.646 327.977 C 785.606 331.028, 776.196 341.464, 775.538 343.625 C 775.437 343.955, 755.797 341.131, 755.395 340.728 C 754.735 340.068, 765.946 325.094, 775.032 314.500 C 797.885 287.855, 824.879 265.728, 873 234.195 C 915.840 206.123, 924.151 200.007, 933.857 189.414 C 943.777 178.589, 947.971 167.393, 946 157.001 C 944.615 149.698, 942.393 146.062, 938.257 144.334 C 933.612 142.393, 929.834 142.933, 909 148.514 C 887.227 154.347, 875.920 156.216, 862 156.282 C 848.143 156.347, 838.889 154.870, 825.204 150.410 C 801.893 142.811, 787.982 134.300, 767.885 115.343 C 753.858 102.112, 747.498 97.584, 736.957 93.327 C 721.786 87.199, 691.818 84.337, 672.232 87.146 M 603.500 503.625 C 542.847 509.833, 490.625 530.700, 445.225 566.870 C 398.109 604.405, 362.473 658.032, 345.530 716.894 C 336.520 748.198, 333.581 770.027, 333.598 805.500 C 333.613 834.414, 334.680 845.872, 339.590 869.797 C 359.230 965.499, 423.550 1045.516, 511.368 1083.497 C 582.855 1114.416, 666.587 1115.817, 738.984 1087.307 C 833.045 1050.266, 901.745 966.307, 920.887 865 C 925.923 838.351, 927.660 800.443, 925.034 774.500 C 917.736 702.379, 887.953 638.312, 838.782 588.959 C 794.225 544.238, 737.673 515.728, 674.004 505.889 C 663.432 504.256, 654.746 503.739, 634 503.509 C 619.425 503.348, 605.700 503.400, 603.500 503.625 M 616.500 567.640 C 589.507 570.498, 561.016 579.020, 534.691 592.112 C 517.380 600.721, 513.852 602.941, 514.424 604.863 C 514.810 606.161, 530.408 662.344, 532.646 670.500 C 532.948 671.600, 522.158 661.510, 508.668 648.078 L 484.140 623.656 480.320 626.516 C 465.059 637.942, 442.222 660.320, 430.843 675 C 417.914 691.680, 406.792 711.026, 400.017 728.618 L 397.186 735.972 406.909 742.343 C 412.256 745.847, 426.840 755.348, 439.316 763.457 C 451.792 771.566, 462 778.505, 462 778.877 C 462 779.249, 460.313 779.411, 458.250 779.237 C 456.188 779.064, 439.875 777.638, 422 776.068 C 404.125 774.499, 389.318 773.386, 389.096 773.595 C 387.633 774.971, 386.913 798.211, 387.907 812 C 391.139 856.862, 408.611 905.456, 437.271 949.288 C 446.500 963.403, 456.875 977.231, 457.917 976.805 C 458.326 976.637, 471.959 962.810, 488.212 946.077 L 517.763 915.653 515.346 908.577 C 508.846 889.546, 505.423 860.683, 507.131 839.313 C 510.728 794.292, 532.306 762.278, 573 741.585 C 604.727 725.452, 632.365 719.162, 666.465 720.315 C 692.554 721.197, 711.269 725.753, 733.842 736.716 L 745.185 742.225 749.294 738.363 C 751.554 736.238, 770.681 717.625, 791.799 697 L 830.194 659.500 816.298 645.945 C 782.317 612.799, 739.965 587.570, 698.094 575.530 C 678.061 569.771, 664.105 567.806, 641 567.494 C 629.725 567.342, 618.700 567.407, 616.500 567.640 M 624.500 746.921 C 601.056 751.831, 582.298 762.007, 563.711 779.899 C 545.144 797.773, 533.605 818.737, 529.989 841.165 C 528.277 851.785, 529.183 871.357, 531.847 881.284 C 534.528 891.277, 540.320 903.601, 546.959 913.439 C 556.266 927.231, 557.473 930.742, 557.468 944 C 557.464 953.411, 557.062 956.573, 555.252 961.408 C 549.219 977.525, 534.421 995.377, 513.981 1011.194 L 510.500 1013.888 514 1012.939 C 515.925 1012.417, 537.300 1006.239, 561.500 999.209 L 605.500 986.429 605.772 968.880 L 606.045 951.331 621.568 947.045 C 630.106 944.687, 637.222 942.925, 637.381 943.129 C 637.541 943.333, 640.107 952.679, 643.085 963.897 C 646.063 975.115, 648.950 984.898, 649.500 985.637 C 650.632 987.157, 792.987 1052.346, 793.674 1051.659 C 793.919 1051.415, 785.378 1020.904, 774.696 983.857 L 755.273 916.500 738.887 912.315 C 729.874 910.014, 714.288 906.012, 704.250 903.423 L 686 898.716 686 881.917 C 686 872.678, 686.337 864.930, 686.750 864.699 C 687.382 864.346, 720.355 871.615, 767.750 882.556 L 779 885.153 779 900.918 L 779 916.683 793.114 935.591 C 800.876 945.991, 807.898 955.175, 808.717 956 C 810.037 957.329, 810.132 956.361, 809.549 947.500 C 807.385 914.621, 802.723 875.359, 798.507 854.500 C 793.679 830.609, 770.282 765, 766.591 765 C 765.973 765, 759.208 767.241, 751.558 769.979 L 737.648 774.958 730.574 770.401 C 715.868 760.926, 694.666 752.141, 676.262 747.898 C 663.189 744.884, 636.624 744.383, 624.500 746.921 M 604.672 806.378 C 586.205 811.552, 577.766 832.980, 587.591 849.745 C 590.290 854.351, 596.835 859.653, 602.316 861.674 C 607.627 863.632, 618.865 863.243, 624 860.923 C 634.354 856.246, 640.083 847.653, 640.795 835.734 C 641.225 828.529, 641.026 827.495, 638.037 821.423 C 631.863 808.882, 618.017 802.639, 604.672 806.378 M 1.762 1241.707 C 3.006 1241.946, 4.806 1241.937, 5.762 1241.687 C 6.718 1241.437, 5.700 1241.241, 3.500 1241.252 C 1.300 1241.263, 0.518 1241.468, 1.762 1241.707 M 13.784 1241.738 C 16.689 1241.941, 21.189 1241.939, 23.784 1241.734 C 26.378 1241.528, 24 1241.363, 18.500 1241.365 C 13 1241.368, 10.878 1241.536, 13.784 1241.738 " stroke="none" fill="black" fill-rule="evenodd"/>
</svg>