<svg xmlns="http://www.w3.org/2000/svg" width="35" height="30" viewBox="0 0 1328 1364" version="1.1">
	<path d="M 743.814 101.008 C 723.069 104.306, 714.268 108.707, 687.058 129.391 C 666.575 144.960, 651.152 151.814, 626.500 156.300 C 615.819 158.245, 611.093 158.483, 583.500 158.466 C 550.421 158.446, 541.157 157.628, 515 152.419 C 493.348 148.108, 476.608 143.310, 438.133 130.388 C 396.643 116.454, 390.678 115.226, 386.929 119.845 C 377.586 131.355, 384.445 156.092, 412.180 210.921 C 437.640 261.253, 448.499 275.891, 478 299.641 C 500.363 317.645, 510.591 330.351, 521.986 354.282 C 527.342 365.531, 538 392.519, 538 394.833 C 538 395.378, 536.087 396.139, 533.750 396.523 C 522.721 398.338, 512.726 405.749, 507.792 415.771 C 504.951 421.541, 504.500 423.492, 504.500 430 C 504.500 436.530, 504.948 438.453, 507.840 444.327 C 511.693 452.153, 519.334 458.949, 527.233 461.576 L 531.966 463.149 526.289 470.325 C 519.065 479.454, 512.965 486.720, 471.986 535 C 405.860 612.909, 370.669 657.095, 335 707 C 258.489 814.047, 211.735 910.163, 199.042 986.500 C 187.637 1055.090, 200.600 1112.843, 236.750 1154.500 C 258.231 1179.253, 293.331 1198.326, 334 1207.343 C 364.121 1214.022, 390.991 1216.398, 436 1216.363 C 473.281 1216.334, 486.498 1215.732, 554 1210.990 C 624.241 1206.055, 632.409 1205.674, 668 1205.668 C 705.017 1205.662, 713.247 1206.155, 790.500 1213.012 C 889.774 1221.824, 934.202 1223.973, 976.965 1222.032 C 1057.855 1218.361, 1109.507 1202.927, 1147.370 1171.113 C 1183.389 1140.848, 1201.969 1090.814, 1198.042 1034.656 C 1190.932 932.966, 1125.880 805.537, 995.620 638.133 C 960.393 592.860, 923.781 549.326, 858 474.494 C 828.032 440.402, 825.917 437.841, 823.100 432.250 C 820.482 427.053, 819.344 427.204, 839.646 430.054 L 854.276 432.108 861.567 439.470 C 877.870 455.933, 902.091 461.930, 924.310 455.005 L 931.120 452.883 937.810 456.547 C 952.857 464.788, 965.026 475.331, 972.066 486.223 C 977.801 495.097, 977.838 495.569, 973.150 500.358 C 958.255 515.575, 963.270 537.599, 983.849 547.349 C 990.074 550.298, 991.204 550.498, 1001.500 550.472 C 1015.768 550.435, 1021.990 548.173, 1030.067 540.087 C 1038.049 532.097, 1040.754 522.856, 1038.007 512.965 C 1036.487 507.493, 1031.529 500.395, 1026.868 497.019 C 1023.316 494.446, 1022.296 492.881, 1020.488 487.228 C 1013.532 465.478, 996.423 443.308, 975.192 428.534 L 966.884 422.752 968.804 420.626 C 995.688 390.859, 997.029 389.557, 1003.600 386.857 C 1014.260 382.476, 1019.787 377.257, 1024.106 367.494 C 1026.927 361.116, 1027.113 351.463, 1024.560 344 C 1021.925 336.301, 1012.739 327.162, 1004.566 324.108 C 980.780 315.220, 955.287 328.380, 952.441 351.017 C 951.961 354.840, 950.990 357.318, 949.235 359.202 L 946.719 361.903 942.584 358.516 C 923.525 342.898, 892.031 342.060, 870.745 356.604 C 861.981 362.592, 856.928 368.499, 851.800 378.750 C 849.530 383.288, 847.380 387, 847.023 387 C 845.228 387, 823.625 383.959, 823.331 383.665 C 822.647 382.980, 837.046 362.210, 845.631 351.500 C 850.480 345.450, 860.535 334.417, 867.974 326.982 C 890.668 304.300, 911.085 288.232, 949 263.216 C 995.610 232.463, 1000.725 228.943, 1010.148 221.139 C 1027.059 207.133, 1034.120 196.352, 1034.816 183.471 C 1035.285 174.800, 1033.782 168.907, 1030.032 164.711 C 1027.311 161.666, 1026.811 161.505, 1020.331 161.593 C 1015.538 161.658, 1008.428 163.072, 996.500 166.332 C 967.653 174.214, 965.754 174.507, 944 174.436 C 926.155 174.378, 923.694 174.150, 915 171.751 C 909.775 170.309, 900.426 167.089, 894.225 164.594 C 874.874 156.811, 862.911 148.861, 846 132.547 C 832.825 119.838, 828.159 116.099, 820 111.713 C 806.261 104.329, 790.451 101.040, 766 100.481 C 756.925 100.274, 746.941 100.511, 743.814 101.008 M 743.184 145.501 C 736.022 147.511, 731.377 150.369, 716.508 161.917 C 683.069 187.886, 654.422 198.574, 608.842 202.086 C 590.627 203.490, 559.143 202.784, 540.500 200.555 C 513.853 197.368, 481.582 190.457, 456.750 182.619 C 450.837 180.753, 446 179.631, 446 180.125 C 446 181.818, 461.991 212.960, 468.432 223.811 C 479.838 243.026, 485.147 248.972, 507 267.004 C 528.249 284.538, 536.620 293.534, 547.934 311 C 560.343 330.157, 573.458 360.626, 583.502 393.631 C 583.736 394.402, 588.184 393.697, 597.476 391.417 C 638.023 381.468, 685.108 377.180, 739.500 378.484 C 756.550 378.893, 772.199 379.289, 774.276 379.364 L 778.052 379.500 781.389 371.250 C 789.835 350.368, 811.216 321.889, 839.202 294.245 C 862.342 271.388, 882.380 255.321, 915.653 232.945 L 936.169 219.148 931.334 218.532 C 914.853 216.434, 904.797 214.258, 891.725 209.961 C 860.103 199.566, 841.192 188.071, 814.886 163.256 C 801.702 150.819, 799.118 149.112, 789.410 146.418 C 780.904 144.058, 750.479 143.455, 743.184 145.501 M 678.500 423.101 C 654.167 424.912, 626.400 429.145, 606.500 434.077 C 588.409 438.561, 588 438.731, 588 441.764 C 588 446.838, 584.738 457.617, 580.399 466.878 C 573.135 482.384, 563.227 495.255, 516.031 550.500 C 501.935 567, 481.112 591.598, 469.759 605.163 C 366.406 728.647, 300.030 829.208, 265.399 914.771 C 234.022 992.298, 230.234 1056.916, 254.338 1103.500 C 271.641 1136.942, 302.451 1156.833, 351.775 1166.408 C 373.610 1170.646, 389.827 1172.111, 421.500 1172.706 C 460.638 1173.442, 483.719 1172.354, 586.500 1164.928 C 623.267 1162.271, 685.279 1161.279, 712.188 1162.915 C 730.528 1164.031, 741.073 1164.903, 821.500 1171.954 C 883.657 1177.403, 901.837 1178.348, 945.500 1178.397 C 989.946 1178.448, 1007.557 1177.285, 1034.730 1172.507 C 1102.093 1160.661, 1138.378 1133.387, 1150.536 1085.458 C 1162.998 1036.332, 1148.719 970.992, 1107.385 888 C 1077.717 828.430, 1040.032 769.219, 986.140 697.500 C 943.308 640.500, 902.168 590.808, 827.620 506.029 C 808.986 484.838, 791.542 464.125, 788.857 460 C 783.427 451.659, 778.687 440.286, 776.376 430.054 L 774.851 423.299 762.768 422.650 C 746.657 421.783, 692.288 422.074, 678.500 423.101 M 662.369 596.501 C 612.221 602.865, 566.403 622.015, 528 652.660 C 517.123 661.340, 497.395 681.059, 488.644 692 C 446.957 744.115, 426.295 809.581, 430.094 877.516 C 434 947.359, 461.470 1008.254, 510.629 1056.040 C 552.204 1096.454, 603.551 1120.665, 663.500 1128.120 C 678.182 1129.946, 712.837 1129.680, 728 1127.624 C 787.600 1119.545, 838.423 1094.612, 880.047 1053.031 C 924.731 1008.394, 951.070 951.833, 957.073 887.623 C 958.573 871.582, 957.750 837.525, 955.511 823 C 953.069 807.159, 949.280 790.907, 944.786 777 C 913.887 681.386, 833.012 612.817, 733 597.440 C 718.257 595.174, 677.136 594.627, 662.369 596.501 M 681.500 638.610 C 660.733 640.122, 641.535 643.819, 622.933 649.887 C 608.395 654.629, 584.279 666.291, 572 674.515 C 519.184 709.891, 485.316 764.019, 475.340 829 C 472.898 844.902, 472.893 879.032, 475.328 895 C 479.295 920.998, 485.479 941.019, 496.486 963.500 C 508.070 987.156, 520.568 1004.631, 539.153 1023.157 C 595.805 1079.628, 681.461 1100.091, 760.518 1076.039 C 816.852 1058.901, 866.127 1016.337, 891.959 962.500 C 922.022 899.845, 922.078 824.887, 892.109 762.500 C 881.023 739.422, 867.895 720.842, 850.031 702.950 C 809.533 662.385, 758.765 640.570, 700.500 638.696 C 692.800 638.448, 684.250 638.410, 681.500 638.610 M 667 695.507 C 635.729 699.790, 605.134 713.473, 573.500 737.322 C 562.326 745.746, 542.712 765.782, 535.148 776.500 C 528.721 785.604, 521.732 798.507, 517.976 808.201 C 510.297 828.015, 507.921 855.625, 511.891 878.891 C 514.714 895.434, 521.741 916.115, 530.403 933.367 C 537.410 947.326, 549.678 966.721, 556.421 974.500 L 559.888 978.500 581.119 957.322 L 602.350 936.144 600.223 928.822 C 595.050 911.013, 593.486 888.060, 596.409 872.838 C 601.539 846.120, 617.459 826.550, 644.273 813.998 C 681.579 796.534, 722.195 795.596, 755.613 811.426 L 764.841 815.798 794.957 787.211 L 825.073 758.623 818.286 751.738 C 798.029 731.187, 766.675 711.758, 739 702.608 C 714.917 694.645, 690.717 692.259, 667 695.507 M 674.888 824.889 C 665.703 826.900, 652.119 832.758, 644.521 837.986 C 622.373 853.224, 608.666 876.898, 608.615 900 C 608.603 905.225, 609.191 911.975, 609.922 915 C 611.691 922.328, 616.796 933.336, 621.928 940.894 C 624.225 944.276, 626.774 948.942, 627.593 951.263 C 629.214 955.858, 629.616 963.848, 628.494 969.147 C 626.434 978.866, 614.113 995.361, 602.028 1004.577 C 599.287 1006.667, 597.211 1008.544, 597.415 1008.748 C 597.618 1008.952, 612.188 1005.042, 629.791 1000.059 C 647.394 995.077, 662.067 991, 662.398 991 C 662.729 991, 663 985.589, 663 978.975 C 663 965.103, 661.504 966.884, 676.625 962.758 L 685.750 960.268 689.940 975.384 L 694.129 990.500 745.224 1013.257 C 773.326 1025.774, 796.542 1035.792, 796.814 1035.519 C 797.237 1035.096, 770.417 943.083, 769.645 942.311 C 769.492 942.159, 760.172 939.757, 748.933 936.973 C 737.695 934.190, 726.813 931.465, 724.750 930.918 L 721 929.923 721 917.961 C 721 911.383, 721.226 906, 721.503 906 C 723.029 906, 785.518 920.185, 785.965 920.633 C 786.259 920.928, 786.561 924.843, 786.636 929.334 C 786.711 933.825, 786.823 938.682, 786.886 940.127 C 786.960 941.828, 790.737 947.589, 797.591 956.453 C 803.415 963.988, 808.375 969.958, 808.613 969.721 C 809.380 968.953, 806.015 933.994, 803.475 916.354 C 801.026 899.335, 797.028 883.557, 790.972 867 C 786.309 854.252, 778.908 837, 778.103 837 C 777.712 837, 772.857 838.528, 767.313 840.394 L 757.234 843.789 749.867 839.409 C 740.774 834.004, 727.399 828.566, 716.639 825.900 C 704.624 822.924, 685.937 822.471, 674.888 824.889 M 658.842 871.021 C 651.057 875.134, 645.934 885.384, 647.468 893.777 C 648.580 899.859, 652.592 905.676, 657.777 908.723 C 661.659 911.006, 663.657 911.494, 669 911.466 C 673.065 911.445, 676.647 910.817, 678.561 909.788 C 694.396 901.283, 694.527 878.973, 678.790 870.903 C 673.770 868.328, 663.827 868.387, 658.842 871.021 M 1.762 1363.707 C 3.006 1363.946, 4.806 1363.937, 5.762 1363.687 C 6.718 1363.437, 5.700 1363.241, 3.500 1363.252 C 1.300 1363.263, 0.518 1363.468, 1.762 1363.707 M 13.784 1363.738 C 16.689 1363.941, 21.189 1363.939, 23.784 1363.734 C 26.378 1363.528, 24 1363.363, 18.500 1363.365 C 13 1363.368, 10.878 1363.536, 13.784 1363.738 " stroke="none" fill="black" fill-rule="evenodd"/>
</svg>