<svg xmlns="http://www.w3.org/2000/svg" width="35" height="30" viewBox="0 0 1414 1266" version="1.1">
	<path d="M 27 632.462 L 27 1264.925 17.750 1265.255 L 8.500 1265.585 18.250 1265.792 L 28 1266 28 633 C 28 284.850, 27.775 0, 27.500 0 C 27.225 0, 27 284.608, 27 632.462 M 698.875 210.500 C 698.806 265.775, 698.638 311.450, 698.500 312 C 698.362 312.550, 698.194 318.625, 698.125 325.500 L 698 338 665 338 L 632 338 632 366.500 L 632 395 612.500 395 L 593 395 593 367.500 L 593 340 543.500 340 L 494 340 494 421.500 L 494 503 518 503 L 542 503 541.804 666.250 C 541.696 756.038, 541.451 826.462, 541.258 822.750 L 540.909 816 523.954 816 L 507 816 507 834.500 L 507 853 496 853 L 485 853 485 834.500 L 485 816 467.500 816 L 450 816 450 834.500 L 450 853 442 853 L 434 853 434 834.500 C 434 816.667, 433.928 816, 432 816 C 430.039 816, 430 815.333, 430 781.998 L 430 747.995 457.500 734.256 L 485 720.517 485 650.758 L 485 581 449 581 L 413 581 413 604.500 L 413 628 376.500 628 L 340 628 340 604.500 L 340 581 330 581 L 320 581 320 538 L 320 495 374.583 495 C 406.125 495, 429.026 494.624, 428.833 494.109 C 428.650 493.618, 404.031 470.338, 374.125 442.376 L 319.751 391.535 320.469 364.767 L 321.187 338 305.594 338 L 290 338 290 459.500 L 290 581 284.500 581 L 279 581 279 604.500 L 279 628 242.500 628 L 206 628 206 604.500 L 206 581 174 581 L 142 581 142.008 647.750 L 142.016 714.500 170.008 731.451 L 198 748.402 198 919.701 L 198 1091 236.383 1091 C 273.926 1091, 274.778 1091.044, 275.290 1093 C 275.800 1094.951, 276.654 1095, 310.438 1095 C 340.293 1095, 345.142 1094.793, 345.638 1093.500 C 346.145 1092.181, 358.013 1092, 444.107 1092 C 530.456 1092, 542 1092.177, 542 1093.500 C 542 1094.818, 549.794 1095, 606.148 1095 L 670.295 1095 669.651 1086.624 C 664.740 1022.734, 667.483 972.282, 677.544 941.462 C 683.529 923.126, 693.462 910.003, 704.010 906.493 C 730.842 897.565, 751.408 920.397, 761.486 970.303 C 766.625 995.746, 768.107 1013.303, 768.699 1055.750 L 769.247 1095 833.124 1095 C 889.236 1095, 897 1094.818, 897 1093.500 C 897 1092.180, 906.956 1091.974, 979.750 1091.786 C 1025.263 1091.668, 1107.794 1091.738, 1163.154 1091.942 L 1263.807 1092.311 1264.366 1085.906 C 1264.877 1080.046, 1273.093 765.014, 1273.035 753.500 L 1273.010 748.500 1296.005 734.508 L 1319 720.516 1319 650.758 L 1319 581 1283 581 L 1247 581 1247 604.500 L 1247 628 1210.500 628 L 1174 628 1174 604.500 L 1174 581 1166.500 581 L 1159 581 1159 538 L 1159 495 1211 495 C 1239.600 495, 1262.998 494.663, 1262.996 494.250 C 1262.993 493.837, 1239.611 471.675, 1211.036 445 L 1159.081 396.500 1159.040 367.250 L 1159 338 1144 338 L 1129 338 1128.877 437.250 C 1128.809 491.837, 1128.645 538.300, 1128.513 540.500 C 1128.381 542.700, 1128.212 552.712, 1128.137 562.750 L 1128 581 1121 581 L 1114 581 1114 604.500 L 1114 628 1077.518 628 L 1041.037 628 1040.768 604.750 L 1040.500 581.500 1008.250 581.236 L 976 580.972 976.019 647.736 L 976.039 714.500 1004.019 731.395 L 1032 748.290 1032 782.145 L 1032 816 1029.500 816 L 1027 816 1027 834.500 L 1027 853 1018 853 L 1009 853 1009 834.500 L 1009 816 992.500 816 L 976 816 976 834.500 L 976 853 964.500 853 L 953 853 953 834.500 L 953 816 936 816 L 919 816 919 834.500 L 919 853 911 853 L 903 853 903 834.500 C 903 816.446, 902.950 816, 900.926 816 L 898.852 816 899.444 702.750 C 899.769 640.462, 900.304 569.225, 900.633 544.444 L 901.230 499.388 919.865 499.517 C 930.114 499.588, 939.063 499.453, 939.750 499.216 C 940.736 498.877, 941 482.040, 941 419.535 L 941 340.284 914.750 339.637 C 900.313 339.282, 877.138 338.706, 863.250 338.357 L 838 337.723 838 366.361 L 838 395 821 395 L 804 395 804 367.500 L 804 340 767.500 340 L 731 340 731 367.500 C 731 390.706, 730.776 395, 729.567 395 C 728.467 395, 728.204 393.782, 728.437 389.750 C 728.603 386.863, 728.798 358.066, 728.870 325.759 L 729 267.018 781.487 266.759 L 833.973 266.500 781.499 217.500 L 729.025 168.500 729.012 139.250 L 729 110 714 110 L 699 110 698.875 210.500 M 731 224.373 L 731 237 743.333 237 C 750.117 237, 755.943 236.724, 756.280 236.387 C 756.830 235.837, 749.251 228.335, 735.750 216.063 L 731 211.745 731 224.373 M 662 396.500 L 662 425 612.500 425 L 563 425 563 397.500 L 563 370 544 370 L 525 370 525 421.500 L 525 473 548.500 473 L 572 473 572 769 L 572 1065 604.849 1065 L 637.698 1065 637.215 1040.746 C 635.262 942.673, 655.159 889.311, 698.500 876.391 C 706.624 873.969, 722.376 873.969, 730.500 876.391 C 767.571 887.442, 788.798 927.316, 796.462 1000.299 C 797.701 1012.099, 799.934 1051.339, 799.987 1062.250 L 800 1065 833.390 1065 L 866.780 1065 867.364 1044.750 C 867.686 1033.612, 868.186 967.125, 868.476 897 C 869.520 644.833, 870.055 548.838, 870.640 509.250 L 871.235 469 891.117 469 L 911 469 911 419.642 L 911 370.285 904.853 369.642 C 901.473 369.289, 892.023 369, 883.853 369 L 869 369 869 397 L 869 425 821.500 425 L 774 425 774 397.500 L 774 370 767.500 370 L 761 370 761 397.500 L 761 425 716 425 L 671 425 671 396.500 L 671 368 666.500 368 L 662 368 662 396.500 M 327 451.863 L 327 464 339.989 464 L 352.978 464 345.239 456.691 C 340.983 452.671, 335.137 447.209, 332.250 444.554 L 327 439.726 327 451.863 M 1161 451.896 L 1161 464 1174.113 464 L 1187.226 464 1177.863 455.165 C 1172.713 450.305, 1166.813 444.859, 1164.750 443.061 L 1161 439.793 1161 451.896 M 717.402 478.956 C 706.161 480.695, 698.790 484.547, 693.969 491.202 C 688.350 498.958, 687.944 502.245, 688.236 537.555 L 688.500 569.500 723.500 569.500 L 758.500 569.500 758.500 535.500 C 758.500 501.809, 758.478 501.452, 756.114 496.221 C 752.942 489.202, 745.412 482.450, 738.636 480.549 C 731.725 478.610, 723.585 478, 717.402 478.956 M 716.643 501.028 C 710.028 503.010, 710 503.118, 710 526.655 L 710 548 723.500 548 L 737 548 737 526.934 C 737 515.106, 736.571 505.066, 736.021 504.039 C 734.112 500.472, 723.830 498.874, 716.643 501.028 M 172.019 654.250 L 172.038 697.500 200.019 714.412 L 228 731.324 228 896.162 L 228 1061 251.500 1061 L 275 1061 275.020 1029.250 C 275.045 988.736, 276.271 979.580, 283.213 968.035 C 291.802 953.752, 311.128 947.964, 325.653 955.324 C 331.883 958.481, 336.433 963.565, 340.164 971.536 C 345.258 982.422, 346 989.552, 346 1027.588 L 346 1062 373 1062 L 400 1062 400 895.742 L 400 729.483 427.500 715.744 L 455 702.005 455 656.502 L 455 611 449 611 L 443 611 443 634.500 L 443 658 309.500 658 L 176 658 176 634.500 C 176 611.667, 175.943 611, 174 611 C 172.031 611, 172 611.660, 172.019 654.250 M 1006.039 654.250 L 1006.078 697.500 1034.039 714.362 L 1062 731.224 1062 896.112 L 1062 1061 1089.928 1061 L 1117.856 1061 1118.261 1021.750 C 1118.689 980.373, 1118.834 978.946, 1123.756 967.819 C 1126.508 961.596, 1133.263 954.431, 1139.460 951.161 C 1143.944 948.795, 1145.604 948.501, 1154.500 948.501 C 1163.575 948.500, 1164.927 948.751, 1169.113 951.212 C 1178.682 956.837, 1184.858 967.329, 1187.463 982.381 C 1188.649 989.235, 1189 999.335, 1189 1026.631 L 1189 1062 1212 1062 C 1233.238 1062, 1235 1061.866, 1235 1060.250 C 1234.999 1056.717, 1242.028 791.539, 1242.897 762.320 C 1243.391 745.722, 1244.071 731.695, 1244.408 731.149 C 1244.745 730.604, 1254.916 724.163, 1267.010 716.835 L 1289 703.513 1289 657.257 L 1289 611 1283 611 L 1277 611 1277 634.500 L 1277 658 1143.500 658 L 1010 658 1010 634.500 C 1010 611.667, 1009.943 611, 1008 611 C 1006.030 611, 1006.001 611.654, 1006.039 654.250 M 717.402 650.978 C 706.228 652.659, 698.799 656.534, 693.969 663.202 C 688.350 670.958, 687.944 674.245, 688.236 709.555 L 688.500 741.500 723.500 741.500 L 758.500 741.500 758.500 707.500 C 758.500 673.809, 758.478 673.452, 756.114 668.221 C 752.932 661.179, 745.406 654.441, 738.636 652.571 C 731.714 650.660, 723.576 650.049, 717.402 650.978 M 716.643 673.028 C 710.028 675.010, 710 675.118, 710 698.655 L 710 720 723.500 720 L 737 720 737 698.934 C 737 687.106, 736.571 677.066, 736.021 676.039 C 734.112 672.472, 723.830 670.874, 716.643 673.028 M 275 791.500 L 275 830 309.500 830 L 344 830 344 791.500 L 344 753 309.500 753 L 275 753 275 791.500 M 1118 791.500 L 1118 830 1152.500 830 L 1187 830 1187 791.500 L 1187 753 1152.500 753 L 1118 753 1118 791.500 M 297 791 L 297 808 309.500 808 L 322 808 322 791 L 322 774 309.500 774 L 297 774 297 791 M 1139 791 L 1139 808 1152 808 L 1165 808 1165 791 L 1165 774 1152 774 L 1139 774 1139 791 M 431 972.492 L 431 1062 486.505 1062 L 542.011 1062 541.755 972.750 L 541.500 883.500 486.250 883.242 L 431 882.983 431 972.492 M 899.461 884.250 C 899.198 884.938, 899.100 925.100, 899.242 973.500 L 899.500 1061.500 965.250 1061.757 L 1031 1062.014 1031 972.507 L 1031 883 965.469 883 C 913.964 883, 899.835 883.268, 899.461 884.250 M 1149.452 970.406 C 1145.699 972.041, 1143.654 975.058, 1141.590 982.009 C 1140.250 986.521, 1140 993.783, 1140 1028.182 L 1140 1069 1153.550 1069 L 1167.099 1069 1166.798 1026.250 C 1166.501 984.174, 1166.459 983.409, 1164.171 977.736 C 1160.927 969.695, 1156.335 967.408, 1149.452 970.406 M 304.166 976.514 C 297.873 981.809, 297.596 983.974, 297.230 1030.750 L 296.900 1073 310.450 1073 L 324 1073 324.147 1038.750 C 324.333 995.749, 324.279 993.589, 322.879 987.500 C 321.422 981.169, 318.562 975.429, 316.461 974.623 C 312.665 973.167, 307.133 974.017, 304.166 976.514 M 1.762 1265.707 C 3.006 1265.946, 4.806 1265.937, 5.762 1265.687 C 6.718 1265.437, 5.700 1265.241, 3.500 1265.252 C 1.300 1265.263, 0.518 1265.468, 1.762 1265.707 " stroke="none" fill="black" fill-rule="evenodd"/>
</svg>