<svg xmlns="http://www.w3.org/2000/svg" width="35" height="30" viewBox="0 0 1146 1058" version="1.1">
	<path d="M 27 528.462 L 27 1056.925 17.750 1057.255 L 8.500 1057.585 18.250 1057.792 L 28 1058 28 529 C 28 238.050, 27.775 0, 27.500 0 C 27.225 0, 27 237.808, 27 528.462 M 624.205 87.092 C 600.463 90.710, 579.996 108.360, 572.705 131.500 C 569.493 141.695, 569.551 160.586, 572.824 170.500 C 579.783 191.579, 597.982 208.504, 619 213.443 C 622.575 214.283, 626.998 214.977, 628.829 214.985 C 632.061 215, 632.138 215.096, 631.460 218.250 C 624.878 248.837, 609.308 278.825, 588.707 300.593 C 538.868 353.255, 458.408 368.037, 383.157 338.356 C 376.746 335.827, 369.814 332.904, 367.754 331.861 L 364.007 329.963 368.374 324.601 C 385.706 303.323, 384.065 271.728, 364.631 252.516 C 340.429 228.591, 300.423 232.843, 281.903 261.310 C 275.878 270.570, 273.537 278.740, 273.538 290.500 C 273.539 306.417, 278.109 317.378, 289.391 328.522 C 297.085 336.121, 303.884 339.987, 314.206 342.631 C 322.587 344.778, 337.380 344.081, 344.855 341.186 L 350.210 339.112 349.509 343.806 C 348.261 352.158, 344 367.153, 339.948 377.450 C 331.249 399.555, 319.241 417.759, 301.988 434.998 C 273.892 463.070, 239.250 479.545, 203.773 481.707 C 192.330 482.404, 191.938 481.961, 198.087 475.290 C 211.997 460.199, 211.644 434.253, 197.318 418.895 C 188.282 409.206, 178.744 405, 165.812 405 C 148.165 405, 134.233 413.847, 126.638 429.877 C 123.712 436.052, 123.500 437.244, 123.500 447.500 C 123.500 457.756, 123.712 458.948, 126.638 465.123 C 132.078 476.604, 140.389 484.088, 152.064 488.022 C 157.368 489.808, 160.006 490.093, 167.482 489.687 C 172.442 489.417, 177.639 488.894, 179.030 488.524 L 181.560 487.851 186.888 511.175 C 189.819 524.004, 202.743 577.825, 215.608 630.778 L 239 727.055 239 788.873 C 239 857.912, 238.390 852.176, 246.073 855.386 C 274.305 867.182, 368.333 874.797, 526.500 878.096 C 589.105 879.401, 781.369 878.751, 819.500 877.104 C 940.843 871.864, 1003.910 864.540, 1027.750 852.921 L 1034 849.875 1034 800.745 L 1034 751.614 1043.057 707.057 C 1048.038 682.551, 1060.219 622.457, 1070.126 573.515 C 1080.032 524.573, 1088.289 484.377, 1088.475 484.192 C 1088.661 484.006, 1090.542 484.335, 1092.656 484.922 C 1098.523 486.551, 1109.160 486.207, 1115.661 484.177 C 1147.023 474.387, 1156.336 433.959, 1132.292 411.984 C 1115.130 396.299, 1090.794 396.368, 1073.524 412.152 C 1063.362 421.440, 1058.419 436.155, 1060.799 450.035 C 1061.937 456.668, 1066.743 468.105, 1068.972 469.483 C 1069.532 469.829, 1070.458 470.987, 1071.031 472.058 C 1071.947 473.769, 1071.310 474.489, 1065.786 477.993 C 1059.894 481.731, 1059.028 481.982, 1051.960 481.990 C 1021.233 482.029, 979.956 452.673, 951.674 410.668 C 945.290 401.186, 935.789 381.701, 932.088 370.500 C 928.770 360.462, 924.219 339.447, 925.159 338.508 C 925.493 338.174, 928.818 338.432, 932.547 339.082 C 959.688 343.808, 986.626 326.730, 993.469 300.458 C 994.311 297.225, 994.995 290.737, 994.988 286.040 C 994.966 270.389, 990.442 259.404, 979.519 248.481 C 968.473 237.436, 957.634 233.033, 941.432 233.012 C 927.036 232.993, 914.808 237.690, 905.155 246.944 C 883.101 268.089, 882.417 302.154, 903.609 323.874 C 908.053 328.429, 909.601 330.634, 908.737 331.180 C 905.567 333.185, 890.342 338.047, 879.902 340.389 C 854.545 346.076, 826.063 345.578, 799.103 338.977 C 782.318 334.868, 771.575 330.880, 753.500 322.051 C 708.179 299.912, 674.205 268.355, 650.617 226.484 C 647.528 221, 645 216.054, 645 215.493 C 645 214.932, 647.362 213.922, 650.250 213.249 C 660.105 210.951, 671.648 204.389, 679.481 196.632 C 692.382 183.856, 698.466 169.180, 698.397 151 C 698.325 131.962, 692.910 118.858, 679.547 105.389 C 673.027 98.817, 669.887 96.514, 663 93.253 C 658.325 91.039, 652.475 88.752, 650 88.171 C 643.021 86.531, 631.143 86.034, 624.205 87.092 M 628.226 117.140 C 620.951 118.313, 614.211 121.962, 609.121 127.485 C 602.503 134.664, 600.582 139.821, 600.537 150.518 C 600.503 158.721, 600.795 160.135, 603.771 166.182 C 607.516 173.795, 612.038 178.186, 619.954 181.899 C 624.661 184.106, 626.862 184.496, 634.500 184.475 C 646.162 184.442, 651.914 182.025, 659.260 174.072 C 665.846 166.942, 668.450 160.177, 668.333 150.500 C 668.071 128.766, 649.893 113.646, 628.226 117.140 M 932.500 264.389 C 917.304 271.027, 913.435 291.200, 925.118 302.882 C 934.632 312.397, 951.023 311.878, 959.526 301.794 C 963.931 296.569, 965.247 292.380, 964.826 284.921 C 964.076 271.650, 954.861 262.955, 941.636 263.039 C 938.261 263.061, 934.150 263.668, 932.500 264.389 M 316.168 269.603 C 299.103 278.107, 298.962 302.656, 315.929 311.250 C 331.958 319.369, 350.049 308.665, 350.133 291.013 C 350.220 272.858, 332.302 261.563, 316.168 269.603 M 640.117 280.317 C 621.267 315.512, 593.648 342.339, 557.503 360.559 C 525.945 376.467, 497.602 383.218, 462 383.307 C 435.340 383.374, 413.035 379.909, 388.139 371.832 C 381.340 369.627, 375.464 368.200, 375.079 368.661 C 374.695 369.122, 372.911 374, 371.114 379.500 C 364.578 399.508, 351.296 423.649, 337.279 441 C 329.355 450.809, 312.561 467.028, 302.500 474.589 C 285.722 487.197, 267.434 496.934, 249.099 503.019 C 237.934 506.725, 224.302 510, 220.042 510 C 218.919 510, 218 510.608, 218 511.350 C 218 513.519, 224.504 540.806, 247.446 634.892 L 269 723.284 269 777.059 L 269 830.834 273.750 831.840 C 309.041 839.308, 400.582 845.552, 505.213 847.627 L 539.926 848.316 539.394 844.908 C 539.102 843.034, 537.191 828.343, 535.147 812.263 L 531.431 783.026 537.676 753.885 C 541.112 737.858, 544.057 724.610, 544.221 724.446 C 544.803 723.864, 593.336 703.003, 593.534 703.249 C 593.645 703.387, 599.422 714.335, 606.371 727.579 L 619.007 751.657 604.152 777.964 L 589.297 804.271 565.761 826.010 L 542.225 847.748 547.363 848.365 C 550.188 848.705, 587.341 848.987, 629.924 848.991 L 707.349 849 704.924 846.401 C 703.591 844.972, 693.017 835.067, 681.427 824.391 L 660.354 804.980 646.259 778.319 L 632.163 751.658 644.085 727.829 C 650.643 714.723, 656.271 704, 656.593 704 C 656.914 704, 668.402 708.594, 682.122 714.209 C 701.839 722.278, 707.163 724.845, 707.525 726.459 C 707.777 727.581, 710.296 740.875, 713.121 756 L 718.259 783.500 714.571 813 C 712.543 829.225, 710.622 844.031, 710.302 845.901 L 709.721 849.303 747.610 848.621 C 865.861 846.493, 943.200 841.218, 992.750 831.899 L 1004 829.783 1004 788.334 C 1004 764.127, 1004.416 745.142, 1005.001 742.693 C 1005.552 740.387, 1014.577 696.200, 1025.058 644.500 C 1035.539 592.800, 1045.832 542.027, 1047.933 531.671 C 1050.550 518.767, 1051.398 512.736, 1050.626 512.505 C 1050.007 512.320, 1046.575 511.923, 1043 511.623 C 1005.711 508.497, 958.895 474.795, 927.404 428.408 C 918.619 415.469, 908.030 393.682, 903.286 378.785 C 899.952 368.319, 899.261 366.951, 897.500 367.328 C 865.989 374.078, 850.732 375.595, 830.014 374.036 C 801.317 371.876, 777.659 365.957, 751.192 354.312 C 708.058 335.336, 675.581 310.399, 645.055 272.817 C 644.750 272.442, 642.528 275.817, 640.117 280.317 M 617.206 398.750 L 601.939 429.500 597.473 457.500 C 595.018 472.900, 593.042 486.625, 593.084 488 C 593.142 489.922, 597.656 494.661, 612.612 508.500 C 623.311 518.400, 632.388 526.605, 632.782 526.733 C 633.177 526.861, 642.224 518.536, 652.886 508.233 L 672.272 489.500 668.106 459.138 L 663.939 428.776 648.720 398.389 C 640.349 381.677, 633.269 368.002, 632.987 368.001 C 632.705 368.001, 625.604 381.837, 617.206 398.750 M 486.739 460.655 L 494.119 493.330 509.302 519.057 L 524.485 544.784 531.993 545.367 C 536.122 545.687, 548.612 546.248, 559.750 546.612 C 579.159 547.247, 580.001 547.196, 580.023 545.387 C 580.035 544.349, 581.350 532.475, 582.945 519 C 585.829 494.639, 585.834 494.488, 583.884 492.394 C 582.805 491.236, 572.780 482.058, 561.607 471.999 L 541.292 453.710 511.896 441.349 C 495.728 434.550, 481.793 428.761, 480.930 428.483 C 479.672 428.080, 480.827 434.475, 486.739 460.655 M 759.181 441.946 L 728.862 454.735 706.999 473.433 C 694.974 483.717, 684.644 492.724, 684.043 493.449 C 683.240 494.416, 683.917 501.917, 686.587 521.633 C 688.588 536.410, 690.287 548.553, 690.362 548.619 C 690.783 548.981, 743.911 545.414, 744.282 544.999 C 746.192 542.863, 775.296 495.427, 776.021 493.268 C 776.781 491.007, 781.096 472.258, 789.835 433.250 C 790.359 430.913, 790.498 429.035, 790.144 429.079 C 789.790 429.122, 775.856 434.912, 759.181 441.946 M 1099.258 430.705 C 1098.026 430.942, 1095.680 432.474, 1094.046 434.107 C 1083.414 444.740, 1096.959 461.810, 1109.810 453.974 C 1113.152 451.937, 1116 446.857, 1116 442.933 C 1116 438.598, 1112.775 433.802, 1108.576 431.895 C 1104.489 430.039, 1103.420 429.902, 1099.258 430.705 M 158.763 436.565 C 151.040 440.756, 151.168 454.450, 158.967 458.483 C 169.472 463.915, 180.511 455.671, 177.959 444.299 C 176.673 438.571, 172.139 434.990, 166.234 435.040 C 163.630 435.062, 160.268 435.748, 158.763 436.565 M 631.614 436.750 C 631.327 437.712, 629.653 447.425, 627.894 458.333 L 624.696 478.166 628.629 482.100 L 632.562 486.033 636.429 482.073 L 640.296 478.113 637.524 457.816 C 636 446.653, 634.535 436.952, 634.269 436.260 C 633.577 434.456, 632.222 434.706, 631.614 436.750 M 522 479.622 C 522 480.553, 526.567 489.119, 532.149 498.657 L 542.297 516 547.587 516 L 552.877 516 553.543 511.563 C 553.909 509.122, 554.049 506.674, 553.854 506.123 C 553.411 504.867, 526.131 480.185, 523.750 478.885 C 522.396 478.146, 522 478.313, 522 479.622 M 743.375 482.250 C 741.717 483.488, 734.616 489.428, 727.596 495.452 C 715.648 505.703, 714.868 506.591, 715.415 509.327 C 715.737 510.935, 716 513.319, 716 514.625 C 716 516.658, 716.468 516.986, 719.250 516.900 C 726.222 516.686, 726.834 516.089, 737.605 498.988 C 749.628 479.900, 750.703 476.779, 743.375 482.250 M 427.500 561.489 C 412.650 566.180, 398.518 570.611, 396.096 571.336 L 391.692 572.653 418.596 593.128 L 445.500 613.602 473.363 623.403 C 493.156 630.366, 501.746 632.958, 503.019 632.352 C 505.670 631.092, 544.934 600.619, 544.969 599.794 C 544.986 599.406, 538.532 589.236, 530.628 577.195 L 516.256 555.301 505.378 554.672 C 499.395 554.325, 485.500 553.799, 474.500 553.501 L 454.500 552.961 427.500 561.489 M 747.817 560.750 C 746.558 562.225, 740.681 571.431, 721.639 601.758 L 718.965 606.016 740.569 622.074 L 762.173 638.132 790.739 628.958 L 819.305 619.784 845.653 599.734 C 860.144 588.707, 872 579.404, 872 579.063 C 872 578.721, 857.882 574.067, 840.626 568.721 L 809.252 559 779.281 559 C 751.973 559, 749.177 559.155, 747.817 560.750 M 457.634 583.783 C 456.652 585.372, 457.772 585.886, 477.993 593.126 C 496.435 599.730, 496.509 599.746, 499 597.892 C 505.791 592.837, 505.531 593.632, 502.048 588.570 L 498.904 584 492.110 584 C 488.373 584, 479.238 583.708, 471.808 583.352 C 462.565 582.909, 458.090 583.045, 457.634 583.783 M 762.457 593.663 L 759.724 598.327 763.112 601.136 C 764.975 602.682, 767.267 603.958, 768.205 603.973 C 770.082 604.003, 803.369 593.372, 806.385 591.780 C 810.327 589.699, 805.238 589.030, 785.345 589.015 L 765.190 589 762.457 593.663 M 477.827 662.242 L 454.277 680.500 436.203 708.500 L 418.128 736.500 422.314 736.792 C 424.616 736.952, 439.654 736.424, 455.731 735.618 L 484.962 734.152 512.231 723.954 C 527.229 718.345, 539.934 713.354, 540.466 712.863 C 541.282 712.107, 553.212 659.860, 552.683 659.359 C 552.542 659.226, 529.143 652.212, 502.938 644.448 C 501.990 644.166, 492.132 651.152, 477.827 662.242 M 727.170 656.987 C 713.788 661.299, 702.643 665.024, 702.403 665.264 C 702.163 665.504, 704.743 677.397, 708.136 691.692 L 714.306 717.684 742.131 728.946 L 769.955 740.208 798.727 741.644 C 814.552 742.434, 829.574 742.949, 832.109 742.790 L 836.718 742.500 818.704 714.500 L 800.690 686.500 777.844 667.750 C 765.279 657.438, 754.211 649.033, 753.249 649.073 C 752.287 649.114, 740.551 652.675, 727.170 656.987 M 494 687.627 C 486.575 693.422, 479.262 699.255, 477.750 700.590 C 474.938 703.070, 474.187 705, 476.034 705 C 477.522 705, 514.290 691.116, 515.131 690.237 C 515.518 689.831, 516.140 687.419, 516.512 684.876 L 517.189 680.252 512.416 678.626 C 509.791 677.732, 507.611 677.020, 507.572 677.046 C 507.532 677.071, 501.425 681.832, 494 687.627 M 742.750 683.723 C 737.540 685.251, 737.534 685.263, 739.061 691.330 L 740.123 695.545 757.915 702.773 C 767.701 706.748, 776.743 710, 778.009 710 C 780.285 710, 780.289 709.977, 778.405 707.890 C 776.739 706.045, 751.163 684.751, 748.500 682.991 C 747.950 682.628, 745.362 682.957, 742.750 683.723 M 574.386 743.912 C 571.747 745.111, 570.060 746.627, 569.682 748.140 C 567.826 755.566, 562 784.514, 562 786.313 L 562 788.444 564.026 786.418 C 565.141 785.304, 570.241 776.938, 575.361 767.827 L 584.669 751.262 582.315 746.631 C 581.021 744.084, 579.633 742.010, 579.231 742.022 C 578.829 742.034, 576.649 742.885, 574.386 743.912 M 668.187 746.552 L 665.950 751.156 674.132 766.828 C 688.599 794.537, 689.616 794.474, 684.387 766.190 L 680.670 746.085 676.585 744.433 C 674.338 743.524, 672.033 742.593, 671.462 742.365 C 670.891 742.136, 669.417 744.020, 668.187 746.552 M 1.762 1057.707 C 3.006 1057.946, 4.806 1057.937, 5.762 1057.687 C 6.718 1057.437, 5.700 1057.241, 3.500 1057.252 C 1.300 1057.263, 0.518 1057.468, 1.762 1057.707 " stroke="none" fill="black" fill-rule="evenodd"/>
</svg>