<svg xmlns="http://www.w3.org/2000/svg" width="1298" height="1292" viewBox="0 0 1298 1292" version="1.1">
	<path d="M 27 645.462 L 27 1290.925 17.750 1291.255 L 8.500 1291.585 18.250 1291.792 L 28 1292 28 646 C 28 290.700, 27.775 0, 27.500 0 C 27.225 0, 27 290.458, 27 645.462 M 705 114.610 C 701.975 114.802, 691.400 115.439, 681.500 116.026 C 625.286 119.356, 560.467 127.069, 508.500 136.611 C 409.542 154.783, 331.684 182.817, 277.500 219.789 C 240.272 245.191, 213.728 275.995, 201.063 308.488 C 191.587 332.802, 191.112 337.826, 191.975 404.500 C 192.658 457.163, 192.783 459.840, 194.918 467.500 C 199.708 484.677, 208.625 502.390, 220.845 519 C 227.287 527.755, 245.755 546.965, 254.769 554.288 L 261.039 559.381 260.769 580.307 L 260.500 601.234 252.500 603.961 C 241.652 607.659, 233.452 611.936, 221.060 620.357 C 198.372 635.777, 187.484 651.772, 185.488 672.617 C 184.666 681.201, 186.703 691.526, 191.098 701.062 C 193.880 707.098, 194.490 707.808, 196.132 706.929 C 197.941 705.961, 198 707.131, 198 743.834 C 198 792.811, 199.241 800.439, 211.084 824.285 C 220.343 842.925, 231.237 857.272, 249.369 874.703 L 261 885.885 261.007 938.692 C 261.013 987.489, 261.161 992.114, 262.953 999.589 C 275.637 1052.489, 325.633 1102.076, 398.381 1133.907 C 454.031 1158.256, 526.839 1174.823, 609.500 1181.946 C 671.751 1187.309, 741.142 1187.879, 794.400 1183.464 C 923.582 1172.755, 1043.494 1136.050, 1111.304 1086.461 C 1121.429 1079.057, 1143.090 1058.164, 1151.698 1047.500 C 1165.180 1030.798, 1178.848 1007.956, 1184.910 992 C 1186.971 986.574, 1186.999 985.319, 1186.999 899.320 L 1187 812.141 1178.171 796.320 C 1161.049 765.638, 1153.793 755.322, 1142.684 745.863 C 1138.733 742.499, 1135.091 739.372, 1134.590 738.914 C 1134.069 738.436, 1136.855 734.547, 1141.126 729.790 C 1161.979 706.572, 1174.927 686.969, 1183.571 665.533 L 1187 657.029 1187 569.719 L 1187 482.409 1177.170 464.955 C 1171.763 455.355, 1164.727 443.450, 1161.534 438.500 C 1155.497 429.142, 1143.940 416.462, 1135.750 410.213 L 1131 406.589 1131 342.130 L 1131 277.671 1126.863 270.085 C 1119.400 256.399, 1108.804 238.646, 1103.257 230.532 L 1097.809 222.564 1100.559 220.371 L 1103.309 218.178 1100.222 214.280 C 1095.248 208, 1082.673 196.495, 1072.682 189.084 C 1026.160 154.573, 955.774 130.601, 870 120.054 C 832.884 115.490, 819.430 114.787, 764 114.519 C 734.575 114.377, 708.025 114.418, 705 114.610 M 721.500 132.669 C 627.141 135.811, 523.503 149.563, 446.500 169.160 C 307.160 204.622, 224.542 264.679, 211.426 340.039 C 209.249 352.547, 209.804 373.525, 212.417 377.513 C 215.111 381.625, 228.601 394.191, 240.954 404.095 C 253.786 414.383, 282.552 433.666, 295 440.324 C 355.797 472.842, 501.196 499.698, 630.500 502.293 C 662.170 502.928, 699.961 499.763, 754.426 491.913 C 881.869 473.546, 989.184 444.242, 1032.500 415.980 C 1044.503 408.149, 1061.168 390.208, 1077.536 367.500 C 1085.937 355.844, 1097.312 332.985, 1100.177 322 C 1103.032 311.054, 1103.215 295.132, 1100.626 283 C 1097.902 270.234, 1090.691 249.427, 1082.960 232.028 C 1076.683 217.899, 1075.543 216.022, 1070.311 211.197 C 1064.711 206.033, 1049.063 194.981, 1040 189.788 C 967.914 148.485, 854.946 128.225, 721.500 132.669 M 651.500 178.609 C 648.750 178.812, 639.750 179.452, 631.500 180.031 C 575.601 183.954, 519.952 193.488, 465.006 208.557 C 374.374 233.413, 328 263.662, 328 297.924 C 328 313.396, 338.411 330.870, 357.253 347.024 C 372.329 359.949, 399.107 376.561, 421.635 386.964 L 430.769 391.183 474.135 375.442 C 497.986 366.785, 517.662 359.569, 517.860 359.407 C 518.059 359.245, 516.171 356.500, 513.665 353.306 C 504.467 341.583, 500.790 329.273, 503.420 319.006 C 505.333 311.539, 508.266 306.884, 515.118 300.438 C 532.557 284.034, 566.527 272.844, 624 264.573 C 696.993 254.068, 775.618 254.790, 839.619 266.552 L 852.737 268.963 911.727 248.510 C 944.171 237.262, 972.018 227.552, 973.608 226.934 C 976.409 225.845, 976.168 225.687, 966 221.914 C 912.993 202.246, 839.717 187.085, 765.500 180.428 C 748.632 178.915, 665.347 177.586, 651.500 178.609 M 648 203.630 C 581.534 208.133, 529.600 216.648, 471 232.651 C 399.404 252.204, 353 277.826, 353 297.806 C 353 313.587, 380.562 338.260, 421.605 359.219 L 431.710 364.380 456.105 355.540 C 469.522 350.679, 480.623 346.607, 480.774 346.493 C 480.925 346.378, 480.363 343.651, 479.524 340.432 C 477.335 332.028, 477.541 317.695, 479.964 309.855 C 490.198 276.732, 528.809 255.370, 600.573 243.125 C 680.473 229.492, 761.814 228.634, 835.224 240.650 L 850.947 243.223 873.522 235.460 C 885.937 231.190, 895.737 227.353, 895.298 226.934 C 892.757 224.509, 830.851 212.909, 800 209.077 C 763.440 204.536, 750.005 203.781, 701 203.515 C 674.875 203.374, 651.025 203.425, 648 203.630 M 652.500 278.575 C 624.341 281.758, 591.692 290.363, 571.858 299.829 C 554.822 307.960, 542.044 318.289, 536.872 328.108 C 533.719 334.096, 533.626 344.737, 536.677 350.500 C 540.316 357.374, 546.847 363.806, 556.956 370.471 C 569.321 378.624, 573 382.663, 573 388.084 C 573 393.464, 571.092 396.833, 564.882 402.416 C 558.675 407.997, 540.169 417.426, 524.500 422.990 C 517.315 425.542, 514.540 426.895, 516.500 426.892 C 518.150 426.889, 545.600 423.642, 577.500 419.675 L 635.500 412.464 635.786 402.742 C 636.054 393.623, 636.210 392.991, 638.286 392.556 C 642.295 391.716, 678.106 387.771, 678.374 388.139 C 678.518 388.338, 681.980 393.789, 686.068 400.254 C 690.156 406.718, 694.175 412.216, 695 412.471 C 698.899 413.678, 883.430 449.055, 884.473 448.796 C 885.128 448.633, 874.461 432.075, 860.769 412 C 847.077 391.925, 835.565 374.973, 835.187 374.329 C 834.751 373.586, 818.636 371.471, 791 368.530 C 767.075 365.985, 746.487 363.690, 745.250 363.432 C 743.108 362.984, 743 362.507, 743 353.481 C 743 345.124, 743.208 343.998, 744.750 343.984 C 747.727 343.957, 863.423 355.081, 864.750 355.522 C 865.621 355.811, 866.008 358.602, 866.027 364.719 L 866.054 373.500 886.146 384.798 C 897.197 391.011, 906.492 395.841, 906.802 395.531 C 907.591 394.742, 902.635 370.327, 899.500 359.556 C 895.592 346.132, 891.287 336.554, 884.891 327.054 C 877.812 316.539, 860.959 296.847, 854.534 291.581 L 849.779 287.685 832.137 290.342 C 822.434 291.804, 813.371 292.997, 811.997 292.993 C 810.624 292.990, 803.425 291.463, 796 289.601 C 780.219 285.643, 758.631 281.646, 741 279.419 C 722.945 277.137, 669.708 276.630, 652.500 278.575 M 668.704 302.087 C 636.364 304.274, 604.165 312.007, 581.500 323.031 C 571.327 327.979, 562.774 333.852, 560.362 337.546 C 558.375 340.591, 560.469 342.926, 572.327 350.894 C 589.565 362.476, 596.850 372.319, 597.785 385.291 L 598.275 392.081 602.887 391.486 C 612.476 390.249, 611.728 391.178, 611.770 380.444 C 611.790 375.173, 611.963 370.742, 612.154 370.599 C 612.344 370.456, 629.375 368.426, 650 366.088 C 670.625 363.750, 688.181 361.652, 689.014 361.426 C 690.059 361.142, 693.286 365.365, 699.423 375.046 C 704.315 382.764, 708.720 389.327, 709.213 389.632 C 710.585 390.480, 831 413.711, 831 413.128 C 831 412.846, 828.689 409.096, 825.864 404.793 C 822.763 400.070, 819.890 396.789, 818.614 396.513 C 817.451 396.262, 796.925 393.984, 773 391.451 C 749.075 388.918, 727.025 386.542, 724 386.169 L 718.500 385.492 718.237 350.732 L 717.974 315.972 721.737 316.509 C 730.397 317.746, 851.631 329.053, 853.390 328.789 C 854.944 328.555, 853.993 327.113, 848.405 321.232 L 841.500 313.965 825.169 316.490 L 808.839 319.015 800.565 316.492 C 779.248 309.989, 741.938 303.854, 712.500 302.010 C 694.717 300.895, 686.101 300.911, 668.704 302.087 M 638.081 319.588 C 624.141 323.337, 617.861 332.926, 622.890 342.784 C 630.941 358.566, 671.583 359.213, 681.035 343.710 C 682.245 341.725, 682.994 338.700, 682.996 335.785 C 683.002 328.138, 676.879 322.388, 665.500 319.356 C 658.995 317.623, 644.950 317.742, 638.081 319.588 M 1077.988 434.512 C 1064.099 448.474, 1048.242 458.774, 1023.245 470.072 C 955.765 500.572, 821.995 530.090, 689.500 543.717 C 666.545 546.078, 610.037 546.033, 577 543.628 C 470.085 535.846, 373.929 518.195, 311.087 494.816 C 287.293 485.964, 268.525 476.336, 246.865 461.870 C 242.116 458.698, 237.991 456.343, 237.698 456.636 C 236.818 457.515, 240.601 467.428, 245.162 476.195 C 270.241 524.400, 333.922 562.914, 426.500 585.866 C 505.867 605.544, 621.602 614.077, 719 607.434 C 819.013 600.611, 915.468 577.381, 984.500 543.491 C 1013.726 529.143, 1028.231 519.457, 1045.690 502.632 C 1063.026 485.924, 1074.456 470.840, 1083.567 452.648 C 1087.816 444.165, 1088 443.427, 1088 434.898 C 1088 430.004, 1087.653 426, 1087.228 426 C 1086.803 426, 1082.645 429.830, 1077.988 434.512 M 1131 445.193 C 1131 453.333, 1129.360 458.362, 1121.805 473.387 C 1107.799 501.244, 1081.601 532.259, 1055.704 551.642 C 991.579 599.637, 870.868 637.496, 745.500 648.932 C 712.833 651.911, 688.173 652.987, 652.500 652.988 C 551.972 652.991, 460.076 641.749, 388.289 620.667 C 372.224 615.949, 377.959 619.307, 411 633.967 C 495.967 671.664, 576.708 695.128, 650 703.419 C 694.108 708.410, 728.179 707.555, 787.710 699.966 C 905.840 684.905, 1018.319 657.410, 1072.149 630.436 C 1094.206 619.383, 1103.157 611.700, 1123.338 586.500 C 1139.309 566.557, 1151.396 545.283, 1156.007 529 C 1158.666 519.609, 1159.653 503.568, 1158.115 494.737 C 1155.263 478.361, 1144.389 454.837, 1132.867 440.115 L 1131 437.730 1131 445.193 M 304.220 644.712 C 304.623 658.271, 304.921 660.195, 307.803 667.869 C 322.357 706.611, 361.406 741.091, 418.205 765.351 C 495.235 798.253, 600.459 814.306, 728.674 812.716 C 780.193 812.078, 810.028 809.761, 854.500 802.943 C 948.570 788.523, 1038.615 756.816, 1085.760 721.513 C 1100.859 710.207, 1119.893 689.671, 1130.261 673.500 C 1132.730 669.650, 1136.831 662.346, 1139.375 657.270 C 1143.699 648.641, 1144 647.529, 1144 640.187 C 1144 635.867, 1143.760 632.093, 1143.466 631.799 C 1143.172 631.505, 1139.910 634.404, 1136.216 638.240 C 1111.212 664.207, 1066.964 684.546, 989.931 705.483 C 917.711 725.111, 808.694 743.762, 735.063 749.087 C 714.984 750.539, 673.649 749.756, 652.500 747.522 C 551.676 736.875, 446.145 702.793, 330.140 643.416 L 303.780 629.924 304.220 644.712 M 252.469 651.687 C 243.413 657.281, 235.342 663.685, 232.265 667.718 C 229.996 670.693, 229.484 672.414, 229.410 677.316 L 229.320 683.290 224.053 687.053 C 221.156 689.122, 218.356 691.244, 217.831 691.769 C 216.834 692.766, 229.937 700.773, 257.164 715.805 C 271.191 723.549, 299.402 738, 300.494 738 C 300.780 738, 298.269 734.737, 294.915 730.750 C 275.958 708.215, 262.522 678.867, 261.265 657.250 C 260.918 651.282, 260.321 648, 259.582 648 C 258.953 648, 255.752 649.659, 252.469 651.687 M 242 769.894 C 242 785.205, 243.300 790.866, 249.961 804.566 C 271.229 848.305, 325.982 885.432, 403 908.339 C 451.757 922.841, 503.104 931.375, 573.558 936.688 C 602.830 938.896, 695.718 939.216, 720.500 937.195 C 809.202 929.962, 882.730 914.172, 947.950 888.353 C 1007.450 864.798, 1041.667 840.437, 1066.735 803.783 C 1072.205 795.784, 1082 778.311, 1082 776.551 C 1082 776.203, 1076.938 778.607, 1070.750 781.892 C 1033.112 801.878, 986.376 818.538, 926 833.493 C 844.271 853.737, 766.154 867.227, 684.500 875.197 C 665.221 877.078, 615.419 876.783, 594.308 874.663 C 521.562 867.354, 451.907 849.506, 370.500 817.316 C 335.400 803.437, 288.344 781.794, 256.250 764.768 L 242 757.209 242 769.894 M 1126 773.057 C 1126 783.440, 1125.783 784.643, 1122.434 792.807 C 1110.718 821.367, 1086.713 853.037, 1059.500 875.836 C 1032.309 898.617, 986.781 921.884, 934.957 939.484 C 838.952 972.088, 726.648 986.734, 609 981.994 C 526.665 978.676, 460.576 969.551, 402.500 953.483 C 393.700 951.048, 383.237 947.945, 379.250 946.587 C 375.262 945.230, 372 944.486, 372 944.935 C 372 945.384, 379.877 949.413, 389.504 953.889 C 484.014 997.828, 567.960 1023.339, 650.109 1033.089 C 672.328 1035.726, 713.610 1036.703, 735 1035.098 C 781.411 1031.617, 850.618 1021.464, 907 1009.866 C 1006.201 989.458, 1074.883 965.251, 1100.701 941.595 C 1114.793 928.682, 1139.113 896.690, 1147.415 880.144 C 1163.750 847.588, 1162.676 820.003, 1143.776 786.685 C 1139.064 778.378, 1127.604 762, 1126.504 762 C 1126.227 762, 1126 766.975, 1126 773.057 M 304.205 974.750 C 304.606 988.732, 304.813 989.982, 308.172 998.742 C 328.335 1051.327, 393.160 1094.322, 488.500 1118.346 C 575.090 1140.165, 697.405 1148.528, 797.500 1139.473 C 910.776 1129.226, 1016.712 1097.969, 1077.613 1056.825 C 1103.574 1039.286, 1126.707 1013.087, 1139.644 986.573 C 1143.721 978.216, 1144 977.113, 1144 969.323 C 1144 964.745, 1143.592 961, 1143.093 961 C 1142.594 961, 1140.288 963.267, 1137.969 966.038 C 1126.199 980.095, 1102.443 995.236, 1072.188 1007.961 C 1002.198 1037.401, 870.997 1065.785, 750 1077.663 C 728.663 1079.758, 684.056 1080.012, 663 1078.159 C 575.623 1070.470, 484.146 1044.614, 384.226 999.363 C 366.841 991.490, 327.462 972.055, 313.399 964.406 C 308.943 961.983, 304.956 960, 304.540 960 C 304.123 960, 303.972 966.638, 304.205 974.750 M 1.762 1291.707 C 3.006 1291.946, 4.806 1291.937, 5.762 1291.687 C 6.718 1291.437, 5.700 1291.241, 3.500 1291.252 C 1.300 1291.263, 0.518 1291.468, 1.762 1291.707 " stroke="none" fill="black" fill-rule="evenodd"/>
</svg>